<svg width="38" height="35" viewBox="0 0 38 35" fill="none" xmlns="http://www.w3.org/2000/svg">
<path d="M4.3457 10.6313C4.48568 10.4946 4.65221 10.3861 4.8357 10.312C5.01918 10.238 5.21599 10.1999 5.41477 10.1999C5.61354 10.1999 5.81035 10.238 5.99383 10.312C6.17732 10.3861 6.34385 10.4946 6.48383 10.6313L15.9549 19.8188L22.4144 13.5479C22.5544 13.4112 22.721 13.3028 22.9044 13.2287C23.0879 13.1547 23.2847 13.1166 23.4835 13.1166C23.6823 13.1166 23.8791 13.1547 24.0626 13.2287C24.2461 13.3028 24.4126 13.4112 24.5526 13.5479L33.587 22.2979C33.7281 22.4335 33.8401 22.5948 33.9165 22.7725C33.993 22.9502 34.0323 23.1408 34.0323 23.3333C34.0323 23.5259 33.993 23.7165 33.9165 23.8942C33.8401 24.0719 33.7281 24.2332 33.587 24.3688C33.447 24.5054 33.2804 24.6139 33.097 24.688C32.9135 24.762 32.7167 24.8001 32.5179 24.8001C32.3191 24.8001 32.1223 24.762 31.9388 24.688C31.7553 24.6139 31.5888 24.5054 31.4488 24.3688L23.4835 16.6396L17.0239 22.9104C16.884 23.0471 16.7174 23.1556 16.5339 23.2296C16.3505 23.3037 16.1536 23.3418 15.9549 23.3418C15.7561 23.3418 15.5593 23.3037 15.3758 23.2296C15.1923 23.1556 15.0258 23.0471 14.8858 22.9104L4.3457 12.7021C4.20457 12.5665 4.09255 12.4052 4.01611 12.2275C3.93966 12.0498 3.9003 11.8592 3.9003 11.6667C3.9003 11.4742 3.93966 11.2835 4.01611 11.1058C4.09255 10.9281 4.20457 10.7668 4.3457 10.6313Z" fill="#B4E925"/>
</svg>
