<svg width="34" height="32" viewBox="0 0 34 32" fill="none" xmlns="http://www.w3.org/2000/svg">
<path d="M13.1083 14H16.55C16.9151 14 17.2652 13.8595 17.5234 13.6095C17.7816 13.3594 17.9266 13.0203 17.9266 12.6667C17.9266 12.3131 17.7816 11.9739 17.5234 11.7239C17.2652 11.4738 16.9151 11.3333 16.55 11.3333H15.1733V10.6667C15.1733 10.3131 15.0283 9.97392 14.7701 9.72387C14.5119 9.47382 14.1618 9.33334 13.7966 9.33334C13.4315 9.33334 13.0814 9.47382 12.8232 9.72387C12.565 9.97392 12.42 10.3131 12.42 10.6667V11.4C11.5835 11.5645 10.8401 12.0241 10.3338 12.6897C9.82764 13.3552 9.59483 14.1792 9.6806 15.0017C9.76638 15.8241 10.1646 16.5864 10.798 17.1404C11.4314 17.6945 12.2548 18.0008 13.1083 18H14.485C14.6675 18 14.8426 18.0702 14.9717 18.1953C15.1008 18.3203 15.1733 18.4899 15.1733 18.6667C15.1733 18.8435 15.1008 19.0131 14.9717 19.1381C14.8426 19.2631 14.6675 19.3333 14.485 19.3333H11.0433C10.6782 19.3333 10.328 19.4738 10.0699 19.7239C9.81168 19.9739 9.66664 20.3131 9.66664 20.6667C9.66664 21.0203 9.81168 21.3594 10.0699 21.6095C10.328 21.8595 10.6782 22 11.0433 22H12.42V22.6667C12.42 23.0203 12.565 23.3594 12.8232 23.6095C13.0814 23.8595 13.4315 24 13.7966 24C14.1618 24 14.5119 23.8595 14.7701 23.6095C15.0283 23.3594 15.1733 23.0203 15.1733 22.6667V21.9333C16.0097 21.7688 16.7532 21.3092 17.2594 20.6437C17.7656 19.9781 17.9984 19.1541 17.9127 18.3317C17.8269 17.5092 17.4287 16.747 16.7952 16.1929C16.1618 15.6389 15.3385 15.3325 14.485 15.3333H13.1083C12.9257 15.3333 12.7507 15.2631 12.6216 15.1381C12.4925 15.0131 12.42 14.8435 12.42 14.6667C12.42 14.4899 12.4925 14.3203 12.6216 14.1953C12.7507 14.0702 12.9257 14 13.1083 14ZM28.94 16H24.81V4.00001C24.8109 3.76506 24.7478 3.53404 24.6269 3.33034C24.506 3.12663 24.3317 2.95748 24.1216 2.84001C23.9124 2.72299 23.675 2.66138 23.4333 2.66138C23.1917 2.66138 22.9543 2.72299 22.745 2.84001L18.615 5.13334L14.485 2.84001C14.2757 2.72299 14.0383 2.66138 13.7966 2.66138C13.555 2.66138 13.3176 2.72299 13.1083 2.84001L8.97831 5.13334L4.84831 2.84001C4.63903 2.72299 4.40163 2.66138 4.15997 2.66138C3.91832 2.66138 3.68092 2.72299 3.47164 2.84001C3.26155 2.95748 3.08725 3.12663 2.96637 3.33034C2.8455 3.53404 2.78234 3.76506 2.78331 4.00001V25.3333C2.78331 26.3942 3.21843 27.4116 3.99295 28.1618C4.76748 28.9119 5.81796 29.3333 6.91331 29.3333H26.1866C27.282 29.3333 28.3325 28.9119 29.107 28.1618C29.8815 27.4116 30.3166 26.3942 30.3166 25.3333V17.3333C30.3166 16.9797 30.1716 16.6406 29.9134 16.3905C29.6552 16.1405 29.3051 16 28.94 16ZM6.91331 26.6667C6.54819 26.6667 6.19803 26.5262 5.93986 26.2762C5.68168 26.0261 5.53664 25.687 5.53664 25.3333V6.30668L8.28997 7.82668C8.50244 7.93416 8.7386 7.99029 8.97831 7.99029C9.21801 7.99029 9.45417 7.93416 9.66664 7.82668L13.7966 5.53334L17.9266 7.82668C18.1391 7.93416 18.3753 7.99029 18.615 7.99029C18.8547 7.99029 19.0908 7.93416 19.3033 7.82668L22.0566 6.30668V25.3333C22.0604 25.7882 22.1442 26.2391 22.3044 26.6667H6.91331ZM27.5633 25.3333C27.5633 25.687 27.4183 26.0261 27.1601 26.2762C26.9019 26.5262 26.5518 26.6667 26.1866 26.6667C25.8215 26.6667 25.4714 26.5262 25.2132 26.2762C24.955 26.0261 24.81 25.687 24.81 25.3333V18.6667H27.5633V25.3333Z" fill="#B4E925"/>
</svg>
