<svg width="38" height="35" viewBox="0 0 38 35" fill="none" xmlns="http://www.w3.org/2000/svg">
<path d="M29.5514 2.91669H8.47117C7.27313 2.91669 6.12417 3.37762 5.27703 4.19809C4.4299 5.01857 3.95398 6.13137 3.95398 7.29169V21.875C3.95398 23.0353 4.4299 24.1481 5.27703 24.9686C6.12417 25.7891 7.27313 26.25 8.47117 26.25H12.4463L11.573 27.7084C11.3087 28.1517 11.1695 28.6547 11.1695 29.1667C11.1695 29.6787 11.3087 30.1816 11.573 30.625C11.8396 31.0723 12.224 31.443 12.6869 31.6992C13.1499 31.9554 13.6748 32.088 14.208 32.0834H23.935C24.4631 32.0828 24.9818 31.9478 25.439 31.6918C25.8962 31.4359 26.2759 31.068 26.5399 30.625C26.8042 30.1816 26.9434 29.6787 26.9434 29.1667C26.9434 28.6547 26.8042 28.1517 26.5399 27.7084L25.6515 26.25H29.5514C30.7494 26.25 31.8984 25.7891 32.7455 24.9686C33.5926 24.1481 34.0686 23.0353 34.0686 21.875V7.29169C34.0686 6.13137 33.5926 5.01857 32.7455 4.19809C31.8984 3.37762 30.7494 2.91669 29.5514 2.91669ZM14.1478 29.1667L15.9998 26.25H22.0227L23.8296 29.1667H14.1478ZM31.0571 21.875C31.0571 22.2618 30.8985 22.6327 30.6161 22.9062C30.3337 23.1797 29.9507 23.3334 29.5514 23.3334H8.47117C8.07182 23.3334 7.68883 23.1797 7.40646 22.9062C7.12408 22.6327 6.96544 22.2618 6.96544 21.875V20.4167H31.0571V21.875ZM31.0571 17.5H6.96544V7.29169C6.96544 6.90491 7.12408 6.53398 7.40646 6.26049C7.68883 5.987 8.07182 5.83335 8.47117 5.83335H29.5514C29.9507 5.83335 30.3337 5.987 30.6161 6.26049C30.8985 6.53398 31.0571 6.90491 31.0571 7.29169V17.5Z" fill="#B4E925"/>
</svg>
