<svg width="38" height="35" viewBox="0 0 38 35" fill="none" xmlns="http://www.w3.org/2000/svg">
<path d="M28.623 10.5292C27.703 8.4817 26.1152 6.78285 24.1029 5.69296C22.0907 4.60308 19.7649 4.18229 17.4821 4.49506C15.1993 4.80784 13.0853 5.83694 11.4641 7.42466C9.84296 9.01238 8.80401 11.0711 8.5065 13.2854C7.24502 13.583 6.1166 14.2674 5.28943 15.2367C4.46225 16.2059 3.9806 17.4081 3.91627 18.6641C3.85194 19.92 4.20838 21.1625 4.93244 22.2062C5.65651 23.25 6.70945 24.0392 7.93432 24.4563C8.09048 24.5029 8.25276 24.5274 8.41615 24.5292C8.8155 24.5911 9.22387 24.4968 9.55143 24.2671C9.87899 24.0373 10.0989 23.691 10.1628 23.3042C10.2267 22.9174 10.1293 22.5219 9.89213 22.2047C9.65493 21.8874 9.29733 21.6744 8.89799 21.6125C8.33019 21.414 7.8371 21.0548 7.48268 20.5815C7.12827 20.1083 6.92889 19.5427 6.91042 18.9584C6.91042 18.1848 7.2277 17.4429 7.79246 16.896C8.35722 16.349 9.12319 16.0417 9.92188 16.0417C10.3212 16.0417 10.7042 15.8881 10.9866 15.6146C11.269 15.3411 11.4276 14.9701 11.4276 14.5834C11.4315 12.8586 12.0665 11.1909 13.2198 9.87671C14.3732 8.56251 15.9702 7.68683 17.7272 7.40526C19.4842 7.12369 21.2873 7.45446 22.8163 8.33879C24.3453 9.22313 25.5011 10.6038 26.0784 12.2354C26.1644 12.486 26.3191 12.7093 26.526 12.8814C26.7328 13.0535 26.9841 13.1679 27.2528 13.2125C28.1583 13.3713 28.9921 13.794 29.6427 14.4242C30.2933 15.0545 30.7297 15.8621 30.8934 16.7391C31.0571 17.616 30.9404 18.5205 30.5589 19.3315C30.1774 20.1425 29.5493 20.8213 28.7586 21.2771C28.4111 21.4705 28.1572 21.7896 28.0528 22.1643C27.9483 22.539 28.0018 22.9385 28.2014 23.275C28.4011 23.6115 28.7306 23.8574 29.1175 23.9586C29.5043 24.0598 29.9169 24.008 30.2643 23.8146C31.4059 23.1728 32.3533 22.2516 33.0114 21.1432C33.6694 20.0349 34.015 18.7785 34.0135 17.5C34.009 15.9311 33.482 14.4054 32.5109 13.1495C31.5398 11.8937 30.1763 10.9748 28.623 10.5292ZM23.1572 17.0042C22.5865 17.1244 21.9959 17.1255 21.4247 17.0073C20.8535 16.8891 20.3148 16.6544 19.8446 16.3188C19.5868 16.1363 19.2756 16.0379 18.9563 16.0379C18.6369 16.0379 18.3257 16.1363 18.0679 16.3188C17.5981 16.6553 17.0595 16.8905 16.4882 17.0087C15.9168 17.1269 15.326 17.1254 14.7553 17.0042C14.5353 16.9582 14.3076 16.9605 14.0887 17.011C13.8698 17.0615 13.6654 17.1588 13.4905 17.2959C13.3177 17.4316 13.1782 17.6026 13.0819 17.7968C12.9855 17.991 12.9348 18.2034 12.9333 18.4188V23.3334C12.9322 24.3791 13.1818 25.4109 13.6626 26.3472C14.1434 27.2836 14.8422 28.099 15.7039 28.7292L18.0679 30.4063C18.3257 30.5888 18.6369 30.6871 18.9563 30.6871C19.2756 30.6871 19.5868 30.5888 19.8446 30.4063L22.2086 28.7146C23.0709 28.0883 23.7703 27.2757 24.2513 26.3415C24.7323 25.4073 24.9815 24.3773 24.9792 23.3334V18.4188C24.9777 18.2034 24.927 17.991 24.8306 17.7968C24.7343 17.6026 24.5948 17.4316 24.4221 17.2959C24.2471 17.1588 24.0427 17.0615 23.8238 17.011C23.6049 16.9605 23.3772 16.9582 23.1572 17.0042ZM21.9677 23.3334C21.9545 23.897 21.8126 24.4508 21.5522 24.9551C21.2919 25.4594 20.9196 25.9016 20.462 26.25L18.9563 27.3L17.4505 26.25C16.9929 25.9016 16.6206 25.4594 16.3603 24.9551C16.0999 24.4508 15.9581 23.897 15.9448 23.3334V20.0084C16.9979 19.9625 18.027 19.6884 18.9563 19.2063C19.8855 19.6884 20.9146 19.9625 21.9677 20.0084V23.3334Z" fill="#B4E925"/>
</svg>
