<svg width="183" height="34" viewBox="0 0 183 34" fill="none" xmlns="http://www.w3.org/2000/svg">
<path d="M14.3084 28.7731C19.3194 28.7731 23.3903 24.6892 23.3903 19.6697V15.4353L28.6121 12.3552V19.6697C28.6121 21.6031 28.2376 23.4802 27.4908 25.2484C26.7701 26.9552 25.7411 28.4875 24.428 29.8026C23.1151 31.1178 21.5863 32.1508 19.8826 32.8727C18.1172 33.6206 16.244 34 14.3138 34C12.3836 34 10.5102 33.6208 8.74472 32.8727C7.04081 32.1508 5.51137 31.118 4.19827 29.8026C3.56875 29.172 3.00493 28.4912 2.50824 27.7656L7.02175 25.0996C8.67986 27.3274 11.3272 28.7731 14.3084 28.7731Z" fill="#B4E925"/>
<path d="M5.2445 5.23151L0 5.27303V0H28.612V6.27926L0.369261 22.9454C0.118802 21.8766 0 20.7793 0 19.6628V17.1251L20.1296 5.23151H5.2445Z" fill="white"/>
<path d="M162.037 17.1731C162.037 15.146 162.436 13.3481 163.232 11.7795C164.052 10.2109 165.163 9.00431 166.562 8.15968C167.962 7.31504 169.518 6.89273 171.232 6.89273C172.535 6.89273 173.778 7.18232 174.96 7.76149C176.143 8.31653 177.084 9.06464 177.784 10.0058V0.485596H182.924V27.2725H177.784V24.3042C177.156 25.2936 176.275 26.09 175.141 26.6933C174.007 27.2966 172.692 27.5983 171.196 27.5983C169.506 27.5983 167.962 27.1639 166.562 26.2951C165.163 25.4264 164.052 24.2077 163.232 22.6391C162.436 21.0463 162.037 19.2243 162.037 17.1731ZM177.82 17.2455C177.82 16.0147 177.579 14.965 177.096 14.0962C176.613 13.2033 175.962 12.5276 175.141 12.0691C174.321 11.5865 173.44 11.3451 172.499 11.3451C171.558 11.3451 170.689 11.5744 169.892 12.0329C169.096 12.4914 168.445 13.1671 167.938 14.06C167.455 14.9288 167.214 15.9665 167.214 17.1731C167.214 18.3797 167.455 19.4415 167.938 20.3586C168.445 21.2515 169.096 21.9392 169.892 22.4219C170.713 22.9045 171.582 23.1458 172.499 23.1458C173.44 23.1458 174.321 22.9166 175.141 22.4581C175.962 21.9754 176.613 21.2997 177.096 20.431C177.579 19.5381 177.82 18.4762 177.82 17.2455Z" fill="white"/>
<path d="M159.642 16.8112C159.642 17.5352 159.593 18.1867 159.497 18.7659H144.836C144.957 20.2139 145.464 21.3481 146.357 22.1686C147.25 22.9891 148.348 23.3993 149.651 23.3993C151.533 23.3993 152.872 22.5909 153.669 20.974H159.135C158.556 22.9046 157.445 24.4974 155.804 25.7522C154.163 26.983 152.148 27.5984 149.759 27.5984C147.829 27.5984 146.091 27.176 144.547 26.3314C143.026 25.4626 141.832 24.244 140.963 22.6754C140.118 21.1068 139.696 19.2968 139.696 17.2456C139.696 15.1702 140.118 13.3482 140.963 11.7796C141.808 10.211 142.99 9.0044 144.511 8.15977C146.031 7.31514 147.78 6.89282 149.759 6.89282C151.666 6.89282 153.367 7.30307 154.863 8.12357C156.384 8.94407 157.554 10.1145 158.375 11.6348C159.219 13.131 159.642 14.8565 159.642 16.8112ZM154.393 15.3633C154.369 14.0601 153.898 13.0224 152.981 12.2502C152.064 11.4538 150.942 11.0556 149.615 11.0556C148.36 11.0556 147.298 11.4418 146.429 12.214C145.584 12.9621 145.066 14.0119 144.873 15.3633H154.393Z" fill="white"/>
<path d="M131.432 10.3316C132.084 9.26979 132.928 8.43723 133.966 7.83392C135.028 7.23061 136.234 6.92896 137.586 6.92896V12.2501H136.247C134.654 12.2501 133.447 12.6242 132.627 13.3723C131.83 14.1204 131.432 15.4235 131.432 17.2817V27.2725H126.364V7.21854H131.432V10.3316Z" fill="white"/>
<path d="M103.286 17.2456C103.286 15.1702 103.708 13.3603 104.553 11.8158C105.397 10.2472 106.568 9.0406 108.064 8.19597C109.56 7.3272 111.273 6.89282 113.204 6.89282C115.69 6.89282 117.741 7.52026 119.358 8.77514C120.999 10.0059 122.097 11.7434 122.652 13.9877H117.186C116.896 13.119 116.401 12.4433 115.702 11.9606C115.026 11.4538 114.181 11.2004 113.168 11.2004C111.72 11.2004 110.574 11.7314 109.729 12.7932C108.884 13.8309 108.462 15.315 108.462 17.2456C108.462 19.152 108.884 20.6362 109.729 21.698C110.574 22.7357 111.72 23.2545 113.168 23.2545C115.219 23.2545 116.558 22.3375 117.186 20.5035H122.652C122.097 22.6754 120.999 24.4008 119.358 25.6798C117.717 26.9589 115.665 27.5984 113.204 27.5984C111.273 27.5984 109.56 27.176 108.064 26.3314C106.568 25.4626 105.397 24.256 104.553 22.7116C103.708 21.143 103.286 19.321 103.286 17.2456Z" fill="white"/>
<path d="M100.89 16.8112C100.89 17.5352 100.841 18.1867 100.745 18.7659H86.0845C86.2052 20.2139 86.7119 21.3481 87.6048 22.1686C88.4977 22.9891 89.5957 23.3993 90.8989 23.3993C92.7812 23.3993 94.1206 22.5909 94.9169 20.974H100.383C99.8037 22.9046 98.6936 24.4974 97.0526 25.7522C95.4116 26.983 93.3966 27.5984 91.0075 27.5984C89.0769 27.5984 87.3394 27.176 85.7949 26.3314C84.2746 25.4626 83.08 24.244 82.2113 22.6754C81.3666 21.1068 80.9443 19.2968 80.9443 17.2456C80.9443 15.1702 81.3666 13.3482 82.2113 11.7796C83.0559 10.211 84.2384 9.0044 85.7587 8.15977C87.279 7.31514 89.0286 6.89282 91.0075 6.89282C92.9139 6.89282 94.6153 7.30307 96.1115 8.12357C97.6318 8.94407 98.8022 10.1145 99.6227 11.6348C100.467 13.131 100.89 14.8565 100.89 16.8112ZM95.6409 15.3633C95.6168 14.0601 95.1462 13.0224 94.2292 12.2502C93.3121 11.4538 92.19 11.0556 90.8627 11.0556C89.6078 11.0556 88.546 11.4418 87.6772 12.214C86.8326 12.9621 86.3137 14.0119 86.1207 15.3633H95.6409Z" fill="white"/>
<path d="M78.5484 16.8112C78.5484 17.5352 78.5002 18.1867 78.4036 18.7659H63.7432C63.8639 20.2139 64.3707 21.3481 65.2636 22.1686C66.1565 22.9891 67.2545 23.3993 68.5576 23.3993C70.44 23.3993 71.7793 22.5909 72.5757 20.974H78.0416C77.4625 22.9046 76.3524 24.4974 74.7114 25.7522C73.0704 26.983 71.0553 27.5984 68.6662 27.5984C66.7357 27.5984 64.9981 27.176 63.4537 26.3314C61.9333 25.4626 60.7388 24.244 59.87 22.6754C59.0254 21.1068 58.6031 19.2968 58.6031 17.2456C58.6031 15.1702 59.0254 13.3482 59.87 11.7796C60.7146 10.211 61.8971 9.0044 63.4175 8.15977C64.9378 7.31514 66.6874 6.89282 68.6662 6.89282C70.5727 6.89282 72.274 7.30307 73.7702 8.12357C75.2906 8.94407 76.461 10.1145 77.2815 11.6348C78.1261 13.131 78.5484 14.8565 78.5484 16.8112ZM73.2996 15.3633C73.2755 14.0601 72.8049 13.0224 71.8879 12.2502C70.9709 11.4538 69.8487 11.0556 68.5214 11.0556C67.2666 11.0556 66.2047 11.4418 65.336 12.214C64.4913 12.9621 63.9725 14.0119 63.7794 15.3633H73.2996Z" fill="white"/>
<path d="M47.0413 23.1096H55.9823V27.2725H41.2857V23.182L50.0457 11.3813H41.3219V7.21851H55.8737V11.3089L47.0413 23.1096Z" fill="white"/>
</svg>
