<svg width="183" height="34" viewBox="0 0 183 34" fill="none" xmlns="http://www.w3.org/2000/svg">
<path d="M14.3084 28.7731C19.3194 28.7731 23.3903 24.6892 23.3903 19.6696V15.4353L28.6121 12.3552V19.6696C28.6121 21.6031 28.2376 23.4801 27.4908 25.2484C26.7701 26.9552 25.7411 28.4875 24.428 29.8026C23.1151 31.1177 21.5863 32.1508 19.8826 32.8727C18.1172 33.6206 16.244 34 14.3138 34C12.3836 34 10.5102 33.6208 8.74472 32.8727C7.04081 32.1508 5.51137 31.1179 4.19827 29.8026C3.56875 29.172 3.00493 28.4912 2.50824 27.7655L7.02175 25.0996C8.67986 27.3274 11.3272 28.7731 14.3084 28.7731Z" fill="#B4E925"/>
<path d="M5.2445 5.23151L0 5.27303V0H28.612V6.27926L0.369261 22.9454C0.118802 21.8766 0 20.7793 0 19.6628V17.1251L20.1296 5.23151H5.2445Z" fill="#6A25DA"/>
<path d="M162.037 17.1732C162.037 15.1461 162.436 13.3482 163.232 11.7796C164.052 10.211 165.163 9.00443 166.562 8.1598C167.962 7.31517 169.518 6.89285 171.232 6.89285C172.535 6.89285 173.778 7.18244 174.96 7.76161C176.143 8.31666 177.084 9.06476 177.784 10.0059V0.485718H182.924V27.2726H177.784V24.3043C177.156 25.2938 176.275 26.0901 175.141 26.6934C174.007 27.2967 172.692 27.5984 171.196 27.5984C169.506 27.5984 167.962 27.164 166.562 26.2952C165.163 25.4265 164.052 24.2078 163.232 22.6392C162.436 21.0465 162.037 19.2245 162.037 17.1732ZM177.82 17.2456C177.82 16.0149 177.579 14.9651 177.096 14.0963C176.613 13.2035 175.962 12.5277 175.141 12.0692C174.321 11.5866 173.44 11.3453 172.499 11.3453C171.558 11.3453 170.689 11.5745 169.892 12.033C169.096 12.4915 168.445 13.1673 167.938 14.0602C167.455 14.9289 167.214 15.9666 167.214 17.1732C167.214 18.3798 167.455 19.4417 167.938 20.3587C168.445 21.2516 169.096 21.9394 169.892 22.422C170.713 22.9046 171.582 23.146 172.499 23.146C173.44 23.146 174.321 22.9167 175.141 22.4582C175.962 21.9756 176.613 21.2998 177.096 20.4311C177.579 19.5382 177.82 18.4764 177.82 17.2456Z" fill="#161718"/>
<path d="M159.642 16.8112C159.642 17.5352 159.593 18.1868 159.497 18.766H144.836C144.957 20.2139 145.464 21.3481 146.357 22.1686C147.25 22.9891 148.348 23.3994 149.651 23.3994C151.533 23.3994 152.872 22.5909 153.669 20.9741H159.135C158.556 22.9047 157.445 24.4974 155.804 25.7523C154.163 26.983 152.148 27.5984 149.759 27.5984C147.829 27.5984 146.091 27.1761 144.547 26.3314C143.026 25.4627 141.832 24.244 140.963 22.6754C140.118 21.1068 139.696 19.2969 139.696 17.2456C139.696 15.1702 140.118 13.3482 140.963 11.7796C141.808 10.211 142.99 9.00443 144.511 8.1598C146.031 7.31517 147.78 6.89285 149.759 6.89285C151.666 6.89285 153.367 7.3031 154.863 8.1236C156.384 8.9441 157.554 10.1145 158.375 11.6349C159.219 13.1311 159.642 14.8565 159.642 16.8112ZM154.393 15.3633C154.369 14.0602 153.898 13.0225 152.981 12.2502C152.064 11.4539 150.942 11.0557 149.615 11.0557C148.36 11.0557 147.298 11.4418 146.429 12.214C145.584 12.9621 145.066 14.0119 144.873 15.3633H154.393Z" fill="#161718"/>
<path d="M131.432 10.3317C132.084 9.26988 132.928 8.43732 133.966 7.83401C135.028 7.2307 136.234 6.92905 137.586 6.92905V12.2502H136.247C134.654 12.2502 133.447 12.6243 132.627 13.3724C131.83 14.1205 131.432 15.4236 131.432 17.2818V27.2726H126.364V7.21864H131.432V10.3317Z" fill="#161718"/>
<path d="M103.286 17.2456C103.286 15.1702 103.708 13.3603 104.553 11.8158C105.397 10.2472 106.568 9.04063 108.064 8.196C109.56 7.32723 111.273 6.89285 113.204 6.89285C115.69 6.89285 117.741 7.52029 119.358 8.77517C120.999 10.0059 122.097 11.7435 122.652 13.9878H117.186C116.896 13.119 116.401 12.4433 115.702 11.9606C115.026 11.4539 114.181 11.2005 113.168 11.2005C111.72 11.2005 110.574 11.7314 109.729 12.7932C108.884 13.8309 108.462 15.315 108.462 17.2456C108.462 19.1521 108.884 20.6362 109.729 21.698C110.574 22.7357 111.72 23.2546 113.168 23.2546C115.219 23.2546 116.558 22.3375 117.186 20.5035H122.652C122.097 22.6754 120.999 24.4009 119.358 25.6799C117.717 26.9589 115.665 27.5984 113.204 27.5984C111.273 27.5984 109.56 27.1761 108.064 26.3314C106.568 25.4627 105.397 24.2561 104.553 22.7116C103.708 21.143 103.286 19.321 103.286 17.2456Z" fill="#161718"/>
<path d="M100.89 16.8112C100.89 17.5352 100.841 18.1868 100.745 18.766H86.0845C86.2052 20.2139 86.7119 21.3481 87.6048 22.1686C88.4977 22.9891 89.5957 23.3994 90.8989 23.3994C92.7812 23.3994 94.1206 22.5909 94.9169 20.9741H100.383C99.8037 22.9047 98.6936 24.4974 97.0526 25.7523C95.4116 26.983 93.3966 27.5984 91.0075 27.5984C89.0769 27.5984 87.3394 27.1761 85.7949 26.3314C84.2746 25.4627 83.08 24.244 82.2113 22.6754C81.3666 21.1068 80.9443 19.2969 80.9443 17.2456C80.9443 15.1702 81.3666 13.3482 82.2113 11.7796C83.0559 10.211 84.2384 9.00443 85.7587 8.1598C87.279 7.31517 89.0286 6.89285 91.0075 6.89285C92.9139 6.89285 94.6153 7.3031 96.1115 8.1236C97.6318 8.9441 98.8022 10.1145 99.6227 11.6349C100.467 13.1311 100.89 14.8565 100.89 16.8112ZM95.6409 15.3633C95.6168 14.0602 95.1462 13.0225 94.2292 12.2502C93.3121 11.4539 92.19 11.0557 90.8627 11.0557C89.6078 11.0557 88.546 11.4418 87.6772 12.214C86.8326 12.9621 86.3137 14.0119 86.1207 15.3633H95.6409Z" fill="#161718"/>
<path d="M78.5484 16.8112C78.5484 17.5352 78.5002 18.1868 78.4036 18.766H63.7432C63.8639 20.2139 64.3707 21.3481 65.2636 22.1686C66.1565 22.9891 67.2545 23.3994 68.5576 23.3994C70.44 23.3994 71.7793 22.5909 72.5757 20.9741H78.0416C77.4625 22.9047 76.3524 24.4974 74.7114 25.7523C73.0704 26.983 71.0553 27.5984 68.6662 27.5984C66.7357 27.5984 64.9981 27.1761 63.4537 26.3314C61.9333 25.4627 60.7388 24.244 59.87 22.6754C59.0254 21.1068 58.6031 19.2969 58.6031 17.2456C58.6031 15.1702 59.0254 13.3482 59.87 11.7796C60.7146 10.211 61.8971 9.00443 63.4175 8.1598C64.9378 7.31517 66.6874 6.89285 68.6662 6.89285C70.5727 6.89285 72.274 7.3031 73.7702 8.1236C75.2906 8.9441 76.461 10.1145 77.2815 11.6349C78.1261 13.1311 78.5484 14.8565 78.5484 16.8112ZM73.2996 15.3633C73.2755 14.0602 72.8049 13.0225 71.8879 12.2502C70.9709 11.4539 69.8487 11.0557 68.5214 11.0557C67.2666 11.0557 66.2047 11.4418 65.336 12.214C64.4913 12.9621 63.9725 14.0119 63.7794 15.3633H73.2996Z" fill="#161718"/>
<path d="M47.0413 23.1098H55.9823V27.2726H41.2857V23.1822L50.0457 11.3815H41.3219V7.21863H55.8737V11.3091L47.0413 23.1098Z" fill="#161718"/>
</svg>
