<svg width="171" height="184" viewBox="0 0 171 184" fill="none" xmlns="http://www.w3.org/2000/svg">
<ellipse cx="76.5" cy="108" rx="76.5" ry="76" fill="#B4E925"/>
<g filter="url(#filter0_b_305_29)">
<path d="M18 76C18 34.0264 52.5264 0 94.5 0C136.474 0 171 34.0264 171 76C171 117.974 136.474 152 94.5 152C52.5264 152 18 117.974 18 76Z" fill="black" fill-opacity="0.05"/>
</g>
<path d="M46.5642 155V141.386C46.8986 140.184 47.9435 138.588 49.6989 136.599C51.4961 134.568 53.6694 132.351 56.2189 129.947C58.8102 127.543 61.506 125.119 64.3063 122.674C67.1065 120.229 69.7187 117.97 72.1429 115.898C75.0685 113.37 77.9315 110.738 80.7318 108.003C83.532 105.267 85.8517 102.387 87.6906 99.3616C89.5296 96.3362 90.4491 93.1243 90.4491 89.7259C90.4491 85.2086 89.3624 81.6651 87.1891 79.0956C85.0158 76.4846 81.693 75.1791 77.221 75.1791C73.5848 75.1791 70.7009 75.9666 68.5694 77.5414C66.4378 79.0749 64.9123 81.2299 63.9928 84.0067C63.0733 86.7834 62.6136 90.016 62.6136 93.7045H46C46 87.2807 47.1912 81.7066 49.5735 76.9819C51.9558 72.2159 55.4875 68.5274 60.1686 65.9164C64.8496 63.3055 70.5964 62 77.409 62C83.9709 62 89.446 63.2226 93.8345 65.6678C98.223 68.0715 101.504 71.387 103.677 75.6143C105.892 79.8001 107 84.5455 107 89.8503C107 93.4559 106.31 96.8543 104.931 100.045C103.594 103.195 101.838 106.138 99.665 108.873C97.4916 111.608 95.172 114.116 92.7061 116.395C90.2401 118.674 87.8787 120.747 85.6218 122.612C81.9438 125.596 78.6629 128.352 75.779 130.88C72.937 133.366 70.6173 135.542 68.8201 137.407C67.0647 139.272 65.9781 140.805 65.5601 142.007H106.875V155H46.5642Z" fill="white"/>
<defs>
<filter id="filter0_b_305_29" x="-6" y="-24" width="201" height="200" filterUnits="userSpaceOnUse" color-interpolation-filters="sRGB">
<feFlood flood-opacity="0" result="BackgroundImageFix"/>
<feGaussianBlur in="BackgroundImageFix" stdDeviation="12"/>
<feComposite in2="SourceAlpha" operator="in" result="effect1_backgroundBlur_305_29"/>
<feBlend mode="normal" in="SourceGraphic" in2="effect1_backgroundBlur_305_29" result="shape"/>
</filter>
</defs>
</svg>
