<svg width="173" height="184" viewBox="0 0 173 184" fill="none" xmlns="http://www.w3.org/2000/svg">
<ellipse cx="96.5" cy="108" rx="76.5" ry="76" fill="#6A25DA"/>
<g filter="url(#filter0_b_305_30)">
<path d="M0 76C0 34.0264 34.5264 0 76.5 0C118.474 0 153 34.0264 153 76C153 117.974 118.474 152 76.5 152C34.5264 152 0 117.974 0 76Z" fill="black" fill-opacity="0.05"/>
<path d="M110.604 106.049C114.18 106.172 117.167 107.173 119.564 109.051C122.002 110.93 123.851 113.442 125.111 116.587C126.37 119.691 127 123.163 127 127.002C127 132.107 125.964 136.784 123.892 141.032C121.86 145.279 118.69 148.669 114.383 151.202C110.076 153.734 104.57 155 97.8657 155C92.177 155 87.4229 154.265 83.6033 152.794C79.7837 151.283 76.7362 149.18 74.4607 146.484C72.1853 143.748 70.5396 140.562 69.5238 136.927C68.5079 133.292 68 129.371 68 125.164C68 125.123 68 125.082 68 125.042C68 125.001 68 124.96 68 124.919H84.0909C84.0909 124.96 84.0909 125.001 84.0909 125.042C84.0909 125.082 84.0909 125.123 84.0909 125.164C84.0909 129.616 84.6598 133.067 85.7975 135.518C86.9353 137.968 88.5403 139.684 90.6126 140.664C92.6849 141.644 95.1636 142.134 98.0486 142.134C101.909 142.134 104.997 140.909 107.313 138.458C109.67 135.967 110.848 132.005 110.848 126.573C110.848 124.49 110.625 122.591 110.178 120.875C109.731 119.119 108.959 117.628 107.862 116.403C106.805 115.137 105.363 114.157 103.534 113.462C101.706 112.768 99.3895 112.421 96.5857 112.421H93.4163V100.658H96.5857C99.3488 100.658 101.645 100.291 103.473 99.5553C105.302 98.8202 106.744 97.8399 107.801 96.6146C108.898 95.3485 109.67 93.919 110.117 92.3261C110.604 90.7332 110.848 89.0791 110.848 87.3636C110.848 83.0343 109.69 79.8893 107.374 77.9289C105.098 75.9684 102.071 74.9881 98.2924 74.9881C94.1071 74.9881 90.6939 76.1318 88.0527 78.419C85.4115 80.7062 84.0909 84.8314 84.0909 90.7945H68C68 86.7918 68.5689 83.0547 69.7066 79.583C70.885 76.1113 72.6729 73.0685 75.0702 70.4545C77.4676 67.7997 80.5558 65.7372 84.3347 64.2668C88.1543 62.7556 92.7052 62 97.9876 62C104.733 62 110.218 63.1436 114.444 65.4308C118.711 67.718 121.86 70.7404 123.892 74.498C125.964 78.2148 127 82.2174 127 86.5059C127 89.9368 126.37 93.1021 125.111 96.002C123.851 98.9018 122.002 101.271 119.564 103.109C117.167 104.906 114.18 105.886 110.604 106.049Z" fill="white"/>
</g>
<defs>
<filter id="filter0_b_305_30" x="-24" y="-24" width="201" height="203" filterUnits="userSpaceOnUse" color-interpolation-filters="sRGB">
<feFlood flood-opacity="0" result="BackgroundImageFix"/>
<feGaussianBlur in="BackgroundImageFix" stdDeviation="12"/>
<feComposite in2="SourceAlpha" operator="in" result="effect1_backgroundBlur_305_30"/>
<feBlend mode="normal" in="SourceGraphic" in2="effect1_backgroundBlur_305_30" result="shape"/>
</filter>
</defs>
</svg>
